<svg width="34" height="34" viewBox="0 0 34 34" fill="none" xmlns="http://www.w3.org/2000/svg">
<g id="Group 4454">
<ellipse id="bg" cx="17.0997" cy="17.4402" rx="16.1856" ry="16.491" fill="url(#paint0_linear_69_6051)"/>
<path id="vector" d="M25.1776 10.6192C25.3218 9.67039 24.4364 8.92151 23.6084 9.2919L7.11708 16.6691C6.52332 16.9347 6.56675 17.851 7.18258 18.0508L10.5835 19.1543C11.2326 19.3649 11.9354 19.256 12.5022 18.857L20.1698 13.4597C20.401 13.297 20.653 13.6319 20.4555 13.8395L14.9362 19.6372C14.4008 20.1997 14.5071 21.1527 15.1511 21.5641L21.3305 25.5123C22.0236 25.9552 22.9152 25.5103 23.0449 24.657L25.1776 10.6192Z" fill="white"/>
</g>
<defs>
<linearGradient id="paint0_linear_69_6051" x1="17.0997" y1="0.949219" x2="17.0997" y2="33.9312" gradientUnits="userSpaceOnUse">
<stop stop-color="#37BBFE"/>
<stop offset="1" stop-color="#007DBB"/>
</linearGradient>
</defs>
</svg>
