<svg width="22" height="27" viewBox="0 0 22 27" fill="none" xmlns="http://www.w3.org/2000/svg">
<path d="M5.22931 7.36679C5.22931 10.4365 7.7178 12.925 10.7875 12.925C13.8572 12.925 16.3457 10.4365 16.3457 7.36679C16.3457 4.29708 13.8572 1.80859 10.7875 1.80859" stroke="white" stroke-width="2.08432" stroke-linecap="round"/>
<path d="M1.0625 21.1725C1.0625 19.977 1.81404 18.9105 2.93991 18.5084V18.5084C8.01586 16.6956 13.5628 16.6956 18.6388 18.5084V18.5084C19.7646 18.9105 20.5162 19.977 20.5162 21.1725V23.0005C20.5162 24.6505 19.0548 25.9179 17.4214 25.6846L16.0952 25.4951C12.5758 24.9924 9.00287 24.9924 5.48352 25.4951L4.15731 25.6846C2.52389 25.9179 1.0625 24.6505 1.0625 23.0005V21.1725Z" stroke="white" stroke-width="2.08432"/>
</svg>
