<svg width="25" height="28" viewBox="0 0 25 28" fill="none" xmlns="http://www.w3.org/2000/svg">
<path d="M0.02154 15.2672C0.02154 15.8421 0.487594 16.3081 1.0625 16.3081C1.63741 16.3081 2.10346 15.8421 2.10346 15.2672H0.02154ZM2.10346 20.125C2.10346 19.5501 1.63741 19.084 1.0625 19.084C0.487594 19.084 0.02154 19.5501 0.02154 20.125H2.10346ZM12.86 9.02143C13.435 9.02143 13.901 8.55538 13.901 7.98047C13.901 7.40556 13.435 6.93951 12.86 6.93951V9.02143ZM22.2287 13.5323V20.472H24.3106V13.5323H22.2287ZM17.7179 24.9828H6.61428V27.0647H17.7179V24.9828ZM2.10346 15.2672V13.5323H0.02154V15.2672H2.10346ZM2.10346 20.472V20.125H0.02154V20.472H2.10346ZM6.61429 9.02143H12.86V6.93951H6.61429V9.02143ZM6.61428 24.9828C4.12302 24.9828 2.10346 22.9632 2.10346 20.472H0.02154C0.02154 24.1131 2.97321 27.0647 6.61428 27.0647V24.9828ZM22.2287 20.472C22.2287 22.9633 20.2091 24.9828 17.7179 24.9828V27.0647C21.3589 27.0647 24.3106 24.1131 24.3106 20.472H22.2287ZM24.3106 13.5323C24.3106 9.89118 21.3589 6.93951 17.7179 6.93951V9.02143C20.2091 9.02143 22.2287 11.041 22.2287 13.5323H24.3106ZM2.10346 13.5323C2.10346 11.041 4.12303 9.02143 6.61429 9.02143V6.93951C2.97321 6.93951 0.02154 9.89119 0.02154 13.5323H2.10346Z" fill="white"/>
<path d="M9.93164 16.2276V14.9447C9.93164 13.8545 10.8154 12.9707 11.9056 12.9707V12.9707C13.0921 12.9707 14.0105 14.0099 13.8646 15.1874L13.6603 16.8357C13.6082 17.2565 13.6905 17.6831 13.8955 18.0543V18.0543C14.6352 19.3937 13.6664 21.0354 12.1363 21.0354H12.0136C10.8638 21.0354 9.93164 20.1033 9.93164 18.9534V18.3989" stroke="white" stroke-width="2.08192" stroke-linecap="round"/>
<path d="M17.7188 8.20828V6.59085C17.7188 3.52468 15.2332 1.03906 12.167 1.03906V1.03906C9.10085 1.03906 6.61523 3.52468 6.61523 6.59085V7.69288" stroke="white" stroke-width="2.08192" stroke-linecap="round"/>
</svg>
