<svg width="122" height="14" viewBox="0 0 122 14" fill="none" xmlns="http://www.w3.org/2000/svg">
<path d="M0.304688 1.55968L0.951622 0.867188H17.7392V4.69294H4.13044H0.304688V1.55968Z" fill="white"/>
<path d="M0.304688 5.52359L4.13061 5.52347V8.93567L4.55695 9.36094H17.7392V13.1881H2.8622L0.304688 10.6428V5.52359Z" fill="white"/>
<path d="M64.0986 0.855469H78.557L81.9441 3.82083V4.68953H64.0986L64.0991 5.53338H67.9194V8.92892L68.3513 9.36415H78.1356V5.10706L77.7055 4.68953H64.0986H81.9441V13.1882H64.0986V4.68953V0.855469Z" fill="white"/>
<path d="M44.1114 0.855469H58.5738L61.9803 3.83349L57.7233 5.11147H44.1113H47.9338L47.9483 13.1982H58.1494V8.93722H48.7833V5.11147H57.7233V4.25657H44.1113L44.1113 5.11147H57.7233L61.9803 3.83349V13.1982H58.1494H47.9483H44.1113V5.11147L44.1114 0.855469Z" fill="white"/>
<path d="M84.5137 1.28516H101.96V5.11921H84.5137V5.96433H87.9191V13.6229L87.9237 9.36608L88.7678 10.208H101.96V9.36608H88.7678V5.96433H87.9191H101.96V5.11921H98.1306H84.5137H101.96V13.6229H87.9191L84.5137 10.6444V5.11921V1.28516Z" fill="white"/>
<path d="M19.8857 0.837891H23.7142V13.2056H19.8857V0.837891Z" fill="white"/>
<path d="M104.066 1.29492H107.466V9.36671L108.318 10.2189H121.075V13.621H106.619L104.066 11.0634V1.29492Z" fill="white"/>
<path d="M31.7737 4.97086L31.3468 4.55985H24.9775V0.849609H32.6259H42.4102V4.55724H37.7291L33.9035 0.849609H32.6259L35.6011 3.73781V13.1957H31.7737V4.97086Z" fill="white"/>
</svg>
