<svg width="764" height="86" viewBox="0 0 764 86" fill="none" xmlns="http://www.w3.org/2000/svg">
<path d="M92.6824 85.4478H39.1944C33.438 85.4478 28.2032 84.3661 23.4899 82.2026C18.7766 80.0391 14.7394 77.0837 11.3783 73.3362C8.05582 69.5888 5.4867 65.1846 3.67092 60.1236C1.85515 55.0626 0.947266 49.6539 0.947266 43.8975C0.947266 38.1798 1.85515 32.8097 3.67092 27.7874C5.4867 22.7264 8.05582 18.3222 11.3783 14.5747C14.7394 10.7887 18.7766 7.81389 23.4899 5.65041C28.2032 3.44831 33.438 2.34726 39.1944 2.34726H92.6824V16.5554L42.5287 16.2077C38.4336 16.2077 34.7441 16.9997 31.4602 18.5837C28.215 20.129 25.4527 22.2539 23.1733 24.9582C20.9326 27.6239 19.1941 30.7532 17.9578 34.3461C16.7602 37.939 16.1614 39.8024 16.1614 43.8975C16.1614 47.9927 16.7602 49.9376 17.9578 53.5692C19.1941 57.1621 20.9326 60.3107 23.1733 63.0151C25.4527 65.6808 28.215 67.7863 31.4602 69.3316C34.7441 70.877 38.4336 71.6496 42.5287 71.6496H92.6824V85.4478Z" fill="white"/>
<path d="M139.552 85.5097H124.583V2.40913L139.552 2.34726V85.5097Z" fill="white"/>
<path d="M224.695 85.5097H206.874V16.2077H167.823V0.367188H263.731V16.2077H225.866L224.695 85.5097Z" fill="white"/>
<path d="M381.985 85.5097L367.26 85.5101V61.7493H309.838V45.9088H367.26V16.2077H333.452C329.396 16.2077 325.571 16.9997 321.978 18.5837C318.385 20.129 315.256 22.2539 312.59 24.9582C309.925 27.6239 306.216 34.3461 306.216 34.3461C306.216 34.3461 303.898 41.7831 303.898 45.8782V85.5097H286.077V43.9594C286.077 40.1347 286.56 36.4645 287.526 32.9489C288.53 29.3946 289.921 26.0914 291.698 23.0394C293.514 19.9487 295.678 17.1478 298.189 14.6366C300.738 12.0868 303.539 9.90402 306.591 8.08825C309.682 6.27248 312.985 4.88167 316.501 3.91584C320.017 2.91137 323.687 2.40913 327.512 2.40913H381.985V85.5097Z" fill="white"/>
<path d="M525.163 43.9594C525.163 49.7158 524.235 55.1245 522.381 60.1855C520.565 65.2464 517.977 69.6507 514.616 73.3981C511.254 77.1455 507.217 80.101 502.504 82.2645C497.829 84.4279 492.633 85.5097 486.915 85.5097H448.443V71.6496H485.438C489.533 71.6496 493.203 70.877 496.448 69.3316C499.732 67.7863 502.494 65.6808 504.735 63.0151C507.014 60.3107 508.753 57.1621 509.95 53.5692C511.187 49.9376 511.805 47.9931 511.805 43.898C511.805 39.8028 511.187 37.939 509.95 34.3461C508.753 30.7532 507.014 27.6239 504.735 24.9582C502.494 22.2539 499.732 20.129 496.448 18.5837C493.203 16.9997 489.533 16.2077 485.438 16.2077H462.272H440.522V85.5097H424.682V2.40913H486.915C492.633 2.40913 497.829 3.51018 502.504 5.71229C507.217 7.87576 511.254 10.8505 514.616 14.6366C517.977 18.3841 520.565 22.7883 522.381 27.8493C524.235 32.8716 525.163 38.2417 525.163 43.9594Z" fill="white"/>
<path d="M646.462 85.5097H560.521V2.40913H646.462L646.45 18.1878H575.167V69.6696H646.45L646.462 85.5097ZM636.378 49.9283H581.107V36.0084H636.549L636.378 49.9283Z" fill="white"/>
<path d="M763.463 85.5097H684.071V2.40913L699.911 2.34726V69.6696H763.463V85.5097Z" fill="white"/>
</svg>
