<svg width="18" height="156" viewBox="0 0 18 156" fill="none" xmlns="http://www.w3.org/2000/svg">
<path d="M17.2923 136.661V147.534C17.2923 148.704 17.0763 149.768 16.6444 150.726C16.2124 151.684 15.6223 152.505 14.8741 153.188C14.1258 153.864 13.2465 154.386 12.236 154.755C11.2255 155.124 10.1455 155.309 8.99619 155.309C7.85455 155.309 6.78234 155.124 5.77955 154.755C4.76905 154.386 3.88968 153.864 3.14144 153.188C2.38549 152.505 1.79153 151.684 1.35956 150.726C0.91988 149.768 0.700038 148.704 0.700038 147.534L0.700038 136.661H3.53692L3.46749 146.856C3.46749 147.689 3.62563 148.439 3.94189 149.106C4.25044 149.766 4.6747 150.327 5.21466 150.791C5.74691 151.246 6.37173 151.599 7.0891 151.851C7.80648 152.094 8.17853 152.216 8.99619 152.216C9.81384 152.216 10.2022 152.094 10.9273 151.851C11.6447 151.599 12.2733 151.246 12.8133 150.791C13.3455 150.327 13.7659 149.766 14.0745 149.106C14.383 148.439 14.5373 147.689 14.5373 146.856L14.5373 136.661H17.2923Z" fill="#35585D"/>
<path d="M17.3047 127.134V130.177H0.712393L0.700038 127.134H17.3047Z" fill="#35585D"/>
<path d="M17.3047 109.826V113.449H3.46749L3.46749 121.387H0.304688L0.304688 101.891H3.46749L3.46749 109.588L17.3047 109.826Z" fill="#35585D"/>
<path d="M17.3047 77.8534L17.3048 80.8466H12.5606L12.5606 92.519H9.39776L9.39776 80.8466H3.46749L3.46749 87.7188C3.46749 88.5434 3.62563 89.3209 3.94189 90.0512C4.25044 90.7816 4.6747 91.4177 5.21466 91.9595C5.74691 92.5014 7.0891 93.2553 7.0891 93.2553C7.0891 93.2553 8.574 93.7265 9.39166 93.7265H17.3047V97.349H9.00854C8.24488 97.349 7.51207 97.2508 6.81012 97.0545C6.10045 96.8503 5.44093 96.5676 4.83154 96.2063C4.21444 95.8372 3.65519 95.3975 3.1538 94.887C2.64469 94.3687 2.20886 93.7993 1.84632 93.1789C1.48377 92.5507 1.20607 91.8792 1.01323 91.1646C0.812672 90.45 0.712393 89.7039 0.712393 88.9264L0.712393 77.8534H17.3047Z" fill="#35585D"/>
<path d="M9.00854 48.749C10.1579 48.749 11.2378 48.9375 12.2483 49.3145C13.2588 49.6836 14.1382 50.2097 14.8864 50.893C15.6347 51.5762 16.2248 52.3968 16.6567 53.3549C17.0887 54.3052 17.3047 55.3614 17.3047 56.5237V64.3442H14.5373V56.8241C14.5373 55.9917 14.383 55.2456 14.0745 54.5859C13.7659 53.9184 13.3455 53.3569 12.8133 52.9014C12.2733 52.4381 11.6447 52.0847 10.9273 51.8412C10.2022 51.5899 9.81393 51.4643 8.99627 51.4643C8.17861 51.4643 7.80648 51.5899 7.0891 51.8412C6.37172 52.0847 5.74691 52.4381 5.21466 52.9014C4.6747 53.3569 4.25044 53.9184 3.94189 54.5859C3.62563 55.2456 3.46749 55.9917 3.46749 56.8241L3.46749 61.5331L3.46749 65.9542H17.3047L17.3047 69.1742H0.712393L0.712393 56.5237C0.712393 55.3614 0.932235 54.3052 1.37192 53.3549C1.80389 52.3968 2.39785 51.5762 3.1538 50.893C3.90203 50.2097 4.7814 49.6836 5.7919 49.3145C6.79469 48.9375 7.8669 48.749 9.00854 48.749Z" fill="#35585D"/>
<path d="M17.3047 24.092V41.5615H0.712393L0.712393 24.092L3.86285 24.0945L3.86285 38.5844H14.142L14.142 24.0945L17.3047 24.092ZM10.2003 26.1417V37.3769H7.421L7.421 26.107L10.2003 26.1417Z" fill="#35585D"/>
<path d="M17.3047 0.308594L17.3047 16.4469H0.712393L0.700038 13.2271H14.142V0.308594H17.3047Z" fill="#35585D"/>
</svg>
