<svg width="137" height="874" viewBox="0 0 137 874" fill="none" xmlns="http://www.w3.org/2000/svg">
<path d="M136.569 726.548L136.569 812.111C136.569 821.319 134.839 829.693 131.378 837.232C127.917 844.772 123.189 851.23 117.195 856.607C111.2 861.922 104.155 866.031 96.0588 868.936C87.9629 871.841 79.3109 873.293 70.1026 873.293C60.9561 873.293 52.3659 871.841 44.3318 868.936C36.2359 866.031 29.1907 861.922 23.196 856.607C17.1396 851.23 12.381 844.772 8.92013 837.232C5.3975 829.693 3.63619 821.319 3.63619 812.111L3.63619 726.548H26.3645L25.8083 806.777C25.8083 813.328 27.0752 819.23 29.609 824.483C32.081 829.674 35.48 834.093 39.8061 837.739C44.0703 841.323 49.0761 844.104 54.8236 846.082C60.571 847.998 63.5517 848.956 70.1026 848.956C76.6534 848.956 79.7647 847.998 85.574 846.082C91.3214 844.104 96.3581 841.323 100.684 837.739C104.948 834.093 108.317 829.674 110.789 824.483C113.261 819.23 114.497 813.328 114.497 806.777L114.497 726.548H136.569Z" fill="#202020"/>
<path d="M136.668 651.572L136.668 675.517H3.73517L3.63619 651.572H136.668Z" fill="#202020"/>
<path d="M136.668 515.372V543.879H25.8083L25.8083 606.348H0.46875L0.46875 452.928H25.8083L25.8083 513.499L136.668 515.372Z" fill="#202020"/>
<path d="M136.668 263.762L136.669 287.317H98.6594L98.6594 379.172H73.3199L73.3199 287.317H25.8083L25.8083 341.397C25.8083 347.886 27.0752 354.005 29.609 359.752C32.081 365.499 35.48 370.505 39.8061 374.77C44.0703 379.034 54.8236 384.967 54.8236 384.967C54.8236 384.967 66.7202 388.675 73.271 388.675H136.668V417.182H70.2016C64.0833 417.182 58.2123 416.409 52.5884 414.864C46.9028 413.257 41.6189 411.033 36.7366 408.19C31.7926 405.285 27.312 401.824 23.295 397.807C19.2162 393.728 15.7245 389.248 12.8198 384.366C9.91522 379.422 7.6904 374.138 6.14539 368.514C4.53858 362.89 3.73517 357.019 3.73517 350.901L3.73517 263.762H136.668Z" fill="#202020"/>
<path d="M70.2016 34.7257C79.4098 34.7257 88.0619 36.209 96.1578 39.1754C104.254 42.08 111.299 46.2206 117.294 51.5973C123.288 56.9739 128.016 63.432 131.477 70.9717C134.938 78.4495 136.668 86.7617 136.668 95.9082V157.452H114.497L114.497 98.2723C114.497 91.7214 113.261 85.8505 110.789 80.6592C108.317 75.4062 104.948 70.9873 100.684 67.4029C96.3581 63.7567 91.3214 60.9756 85.574 59.0599C79.7647 57.0822 76.6541 56.0934 70.1033 56.0934C63.5524 56.0934 60.571 57.0822 54.8236 59.0599C49.0761 60.9756 44.0703 63.7567 39.8061 67.4029C35.48 70.9873 32.081 75.4062 29.609 80.6592C27.0752 85.8505 25.8083 91.7214 25.8083 98.2723L25.8083 135.329L25.8083 170.121H136.668V195.461H3.73517L3.73517 95.9082C3.73517 86.7617 5.49648 78.4495 9.01911 70.9717C12.4799 63.432 17.2386 56.9739 23.295 51.5973C29.2897 46.2206 36.3349 42.08 44.4308 39.1754C52.4648 36.209 61.0551 34.7257 70.2016 34.7257Z" fill="#202020"/>
<path d="M136.668 -159.312L136.668 -21.8365H3.73517L3.73517 -159.312L28.9757 -159.292L28.9757 -45.2646H111.329L111.329 -159.292L136.668 -159.312ZM79.7497 -143.182L79.7497 -54.7669H57.4827L57.4827 -143.455L79.7497 -143.182Z" fill="#202020"/>
<path d="M136.668 -346.475L136.668 -219.475H3.73517L3.63619 -244.813H111.329L111.329 -346.475H136.668Z" fill="#202020"/>
</svg>
