<svg width="15" height="20" viewBox="0 0 15 20" fill="none" xmlns="http://www.w3.org/2000/svg">
<path d="M10.2649 4.98295C9.60978 4.06107 9.12317 3.0499 9.08634 1.73866C9.08432 1.66672 9.00586 1.62188 8.94406 1.65877C5.67033 3.61308 5.73099 8.5158 5.77007 9.40406C5.77302 9.47107 5.70964 9.51835 5.64895 9.4898C5.27086 9.31188 4.18709 8.64162 4.12724 6.78457C4.12492 6.71253 4.0472 6.6662 3.98518 6.70293C2.08972 7.82551 0.818359 9.89893 0.818359 12.1982C0.818359 15.7174 3.77892 18.5703 7.43096 18.5703C11.083 18.5703 14.0436 15.7174 14.0436 12.1982C14.0436 10.1882 13.296 8.79851 12.3814 7.59405" stroke="#B4B4B4" stroke-width="1.41601" stroke-linecap="round"/>
</svg>
