<svg width="48" height="52" viewBox="0 0 48 52" fill="none" xmlns="http://www.w3.org/2000/svg">
<path d="M0.929688 17.6636L15.8255 9.91016V13.0359L11.9662 16.7157L0.929688 22.1186V17.6636Z" fill="white"/>
<path d="M47.9629 17.6636L33.067 9.91016V13.0359L36.9264 16.7157L47.9629 22.1186V17.6636Z" fill="white"/>
<path d="M12.0195 17.6056L23.0561 7.06055V12.4786L16.0781 19.2854V34.1584L23.1627 41.1288V46.7167L12.0195 35.6717V17.6056Z" fill="white"/>
<path d="M36.7695 17.76L25.7331 7.06055V46.6958L29.6315 37.6061V16.1146L32.7498 19.4238V34.1542L29.6315 37.6061L25.7331 46.6958L36.7695 35.6531V17.76Z" fill="white"/>
<path d="M4.55526 12.8132L14.8407 7.44336L17.0824 8.5034L3.94922 15.3131L4.55526 12.8132Z" fill="white"/>
<path d="M44.3461 12.8132L34.0607 7.44336L31.819 8.5034L44.9521 15.3131L44.3461 12.8132Z" fill="white"/>
<path d="M31.0121 44.5916L38.5986 37.2242L38.5986 34.8976L31.012 42.4209L31.0121 44.5916Z" fill="white"/>
<path d="M17.8805 44.5916L10.294 37.2242L10.294 34.8976L17.8806 42.4209L17.8805 44.5916Z" fill="white"/>
<path d="M29.2434 5.34569L24.4017 0.935547L19.5783 5.34569V9.36344L24.4017 4.71777L29.2441 9.36344L29.2434 5.34569Z" fill="white"/>
<path d="M30.4492 46.7729L25.7303 51.0645V47.6648L30.4485 42.9388L30.4492 46.7729Z" fill="white"/>
<path d="M18.4434 46.7729L23.1623 51.0645V47.6648L18.444 42.9388L18.4434 46.7729Z" fill="white"/>
</svg>
