<svg width="26" height="26" viewBox="0 0 26 26" fill="none" xmlns="http://www.w3.org/2000/svg">
<path d="M9.51103 9.09507C9.51103 11.0601 11.104 12.653 13.069 12.653C15.034 12.653 16.627 11.0601 16.627 9.09507C16.627 7.13006 15.034 5.53711 13.069 5.53711" stroke="#B4B4B4" stroke-width="1.56773" stroke-linecap="round"/>
<path d="M6.84277 17.9315C6.84277 17.1662 7.32386 16.4836 8.04456 16.2262V16.2262C11.2938 15.0657 14.8446 15.0657 18.0939 16.2262V16.2262C18.8146 16.4836 19.2956 17.1662 19.2956 17.9315V19.1016C19.2956 20.1578 18.3602 20.9692 17.3146 20.8198L16.966 20.77C14.3812 20.4008 11.7572 20.4008 9.17247 20.77L8.82385 20.8198C7.77825 20.9692 6.84277 20.1578 6.84277 19.1016V17.9315Z" stroke="#B4B4B4" stroke-width="1.56773"/>
<path d="M18.4037 12.7493C19.9476 12.7493 21.1992 11.4977 21.1992 9.95375C21.1992 8.40981 19.9476 7.1582 18.4037 7.1582" stroke="#B4B4B4" stroke-width="1.56773" stroke-linecap="round"/>
<path d="M21.465 19.1274L21.7389 19.1665C22.5604 19.2839 23.2954 18.6464 23.2954 17.8165V16.8971C23.2954 16.2958 22.9174 15.7595 22.3512 15.5572C21.7863 15.3555 21.2099 15.1984 20.627 15.0859" stroke="#B4B4B4" stroke-width="1.56773" stroke-linecap="round"/>
<path d="M7.28675 12.7493C5.74282 12.7493 4.49121 11.4977 4.49121 9.95375C4.49121 8.40981 5.74282 7.1582 7.28675 7.1582" stroke="#B4B4B4" stroke-width="1.56773" stroke-linecap="round"/>
<path d="M4.2245 19.1274L3.95059 19.1665C3.12905 19.2839 2.39403 18.6464 2.39403 17.8165V16.8971C2.39403 16.2958 2.77202 15.7595 3.33829 15.5572C3.90314 15.3555 4.47959 15.1984 5.0625 15.0859" stroke="#B4B4B4" stroke-width="1.56773" stroke-linecap="round"/>
</svg>
