<svg width="30" height="29" viewBox="0 0 30 29" fill="none" xmlns="http://www.w3.org/2000/svg">
<path d="M24.5922 13.3137C25.7232 13.9491 25.7232 15.5874 24.5922 16.2228L17.3893 20.2696C15.7188 21.2082 13.6845 21.2082 12.014 20.2696L4.81116 16.2228C3.68013 15.5874 3.68013 13.9491 4.81117 13.3137M19.19 4.37771L17.3893 3.36601C15.7188 2.42748 13.6845 2.42747 12.014 3.36601L4.81117 7.41281C3.68013 8.04826 3.68013 9.68651 4.81116 10.322L12.014 14.3688C13.6845 15.3073 15.7188 15.3073 17.3893 14.3688L24.5922 10.322C25.7232 9.68652 25.7232 8.04826 24.5922 7.41281L22.7914 6.40111M24.9426 19.3669C25.5406 20.1269 25.3842 21.3303 24.4483 21.8562L17.3893 25.8221C15.7188 26.7607 13.6845 26.7607 12.014 25.8221L5.058 21.914C4.09455 21.3727 3.9607 20.12 4.61096 19.3669" stroke="#676767" stroke-width="1.7898" stroke-linecap="round"/>
</svg>
