<svg width="21" height="24" viewBox="0 0 21 24" fill="none" xmlns="http://www.w3.org/2000/svg">
<path d="M5.13811 6.18192C5.13811 9.02224 7.44065 11.3248 10.281 11.3248C13.1213 11.3248 15.4238 9.02224 15.4238 6.18192C15.4238 3.3416 13.1213 1.03906 10.281 1.03906" stroke="#676767" stroke-width="1.66268" stroke-linecap="round"/>
<path d="M1.28125 18.9534C1.28125 17.8472 1.97663 16.8605 3.01837 16.4884V16.4884C7.71502 14.811 12.8475 14.811 17.5441 16.4884V16.4884C18.5859 16.8605 19.2812 17.8472 19.2812 18.9534V20.6448C19.2812 22.1715 17.9291 23.3442 16.4177 23.1283L15.1906 22.953C11.9342 22.4878 8.62827 22.4878 5.37191 22.953L4.14481 23.1283C2.63344 23.3442 1.28125 22.1715 1.28125 20.6448V18.9534Z" stroke="#676767" stroke-width="1.66268"/>
</svg>
